<svg xmlns="http://www.w3.org/2000/svg" viewBox="0 0 95.87 91.7"><defs><style>.cls-1{fill:#0540f2;stroke:#0540f2;stroke-miterlimit:10;stroke-width:2px;}</style></defs><g id="Camada_2" data-name="Camada 2"><g id="Camada_1-2" data-name="Camada 1"><path class="cls-1" d="M39.47,65l1.71.06a.11.11,0,0,1,.09.06L42,67.33a1.39,1.39,0,1,0,2.63-.87l-.74-2.23a2.88,2.88,0,0,0-2.63-2c-1.69-.06-1.8,0-1.81-.15L38.41,51.44a2.85,2.85,0,0,0-3-2.58,2,2,0,0,1-.48,0l-1.3-4.26a2.84,2.84,0,0,0-1.85-1.89c-7.33-2.4-5.77-1.74-8.4-3.34h0a.09.09,0,0,1,0-.09l.06-1.12a2.87,2.87,0,0,0-4-2.79c-3.51,1.55-5,2.25-5.45,2.4-2.37-.16-2.43-.1-2.43-.25v-.4a2.88,2.88,0,0,0-3.85-2.6.1.1,0,0,1-.11,0L3.8,30.27a.1.1,0,0,1,0-.1l1.38-3.86a.1.1,0,0,1,.07-.07l5.4-1.06a2.87,2.87,0,0,0,2.31-2.53c1-9.74,1.06-7-.06-12.15,0-.17,0-.1,3.71-.67a.08.08,0,0,1,.09,0l2.19,2.52a2.89,2.89,0,0,0,3.58.61l3-1.68a2.89,2.89,0,0,0,1.32-3.39l-.92-2.81c-.06-.17,0-.12,7.31-1.34.13,0,0-.33,2.15,6.2a2.87,2.87,0,0,0,3.38,1.89L42.55,11a2.92,2.92,0,0,0,2.2-2.38c.07-.11-.11-.1,4.23,1.09a2.91,2.91,0,0,0,3.1-1.1l1.05-1.48a.1.1,0,0,1,.18,0c2.42,6.35,2.34,6.67,3.59,7.3l4.05,2A1.39,1.39,0,1,0,62.19,14l-4-2c-.25-.46-.9-2.3-2.24-5.8a2.87,2.87,0,0,0-5-.65L49.82,7a.08.08,0,0,1-.1,0L45.6,5.85A2.88,2.88,0,0,0,42,8.06c0,.07,0,.17-.1.19-4.06.95-4,1-4,.84L35.88,3A2.87,2.87,0,0,0,32.68,1l-7.23,1.2A2.87,2.87,0,0,0,23.2,6l.91,2.81c0,.13.09,0-3,1.8a.13.13,0,0,1-.13,0L18.77,8a2.84,2.84,0,0,0-2.59-.95l-3.64.55a2.87,2.87,0,0,0-2.37,3.45L11,14.66c0,.43-.21,2.22-.77,7.71,0,.12.28,0-5.48,1.15a2.89,2.89,0,0,0-2.15,1.85L1.17,29.23a2.88,2.88,0,0,0,.55,2.87l3.71,4.2a2.87,2.87,0,0,0,3.13.8.1.1,0,0,1,.14.09v.4a2.85,2.85,0,0,0,2.68,2.76c3.82.25,2,.67,9.1-2.48a.09.09,0,0,1,.13.1c-.06,1.06-.36,2.72,1.31,3.73h0c3,1.81,1.16,1,9,3.61a.11.11,0,0,1,.06.07l1.28,4.21c.48,1.57,1.7,2,3.31,2,.14,0,0-.58,1.14,10.76A2.88,2.88,0,0,0,39.47,65Z"/><path class="cls-1" d="M85,41.82c-4.09,3.82-4.27,3.81-4.51,4.9C78.75,54.66,78.18,57.34,78,57.93c0,.06-6.61,9.51-6.68,9.52-10.16.78-9.74.59-10.65,1.39-4.84,4.22-5.07,4.19-5.27,5.49-.46,3-.67,4.61-.78,5L46.23,87.9a.12.12,0,0,1-.14,0l-6-5.87c-.14-.13-.3.09,6.06-4.86a2.87,2.87,0,0,0,1-3.13l-.55-2a1.38,1.38,0,1,0-2.67.72l.57,2.12a.09.09,0,0,1,0,.11L38.43,79.7A2.87,2.87,0,0,0,38.18,84l6,5.86a2.87,2.87,0,0,0,4.06,0l8.41-8.52c1.07-1.08.76-2.18,1.56-6.58.33-.37,1.71-1.52,4.33-3.81.63-.11,3.15-.26,9-.72A2.83,2.83,0,0,0,73.69,69L80.3,59.5c.41-.53.28-.27,2.9-12.19.28-.33,1.47-1.39,3.69-3.47a1.38,1.38,0,1,0-1.89-2Z"/><path class="cls-1" d="M94.18,28.54A2.87,2.87,0,0,0,91.33,26h-2c-.6-.41-2.77-2.32-8-6.73-1.12-1-1.53-.71-9.12-.34-.4-.16-1.81-.91-4.85-2.48a1.39,1.39,0,0,0-1.27,2.47c5.38,2.76,5.27,2.83,6.25,2.78,4.59-.22,6.54-.37,7.2-.32,8.26,7,8.36,7.39,9.61,7.39,2.19,0,2.26-.06,2.27.09s.7,5.7.65,5.75L89,37.7a1.38,1.38,0,0,0,1,2.37c.75,0,.73-.16,4.09-3.48a2.88,2.88,0,0,0,.85-2C94.87,34.31,94.91,34.72,94.18,28.54Z"/></g></g></svg>