<svg xmlns="http://www.w3.org/2000/svg" viewBox="0 0 114.56 86.13"><defs><style>.cls-1{fill:#0540f2;}</style></defs><g id="Camada_2" data-name="Camada 2"><g id="Camada_1-2" data-name="Camada 1"><path class="cls-1" d="M105.87,19.17H88.17a1.68,1.68,0,1,1,0-3.35h17.7a1.68,1.68,0,0,1,0,3.35Z"/><path class="cls-1" d="M88.77,27.25h7a1.68,1.68,0,0,1,0,3.36h-7a1.68,1.68,0,0,1,0-3.36Z"/><path class="cls-1" d="M112.89,38.89H95.77a1.68,1.68,0,1,1,0-3.36h17.12a1.68,1.68,0,0,1,0,3.36Z"/><path class="cls-1" d="M86.49,68.64A1.68,1.68,0,0,1,88.17,67h17.7a1.68,1.68,0,0,1,0,3.36H88.17A1.68,1.68,0,0,1,86.49,68.64Z"/><path class="cls-1" d="M88.77,55.53h7a1.68,1.68,0,0,1,0,3.35h-7a1.68,1.68,0,0,1,0-3.35Z"/><path class="cls-1" d="M94.09,48.92a1.68,1.68,0,0,1,1.68-1.67h17.12a1.68,1.68,0,0,1,0,3.35H95.77A1.68,1.68,0,0,1,94.09,48.92Z"/><path class="cls-1" d="M43.07,22.89a1.68,1.68,0,0,1-1.68-1.68V18.65a1.68,1.68,0,0,1,3.36,0v2.56A1.68,1.68,0,0,1,43.07,22.89Z"/><path class="cls-1" d="M24.62,24.62a1.67,1.67,0,0,1,2.37,0l1.81,1.81a1.68,1.68,0,1,1-2.37,2.37L24.62,27A1.67,1.67,0,0,1,24.62,24.62Z"/><path class="cls-1" d="M21.21,41.39a1.68,1.68,0,0,1,0,3.36H18.65a1.68,1.68,0,0,1,0-3.36Z"/><path class="cls-1" d="M26.43,57.33a1.68,1.68,0,1,1,2.37,2.38L27,61.52a1.68,1.68,0,0,1-2.37-2.38Z"/><path class="cls-1" d="M44.75,64.92v2.56a1.68,1.68,0,1,1-3.36,0V64.92a1.68,1.68,0,1,1,3.36,0Z"/><path class="cls-1" d="M59.71,57.33l1.81,1.81a1.68,1.68,0,0,1-2.37,2.38l-1.82-1.81a1.68,1.68,0,1,1,2.38-2.38Z"/><path class="cls-1" d="M67.48,41.39a1.68,1.68,0,0,1,0,3.36H64.92a1.68,1.68,0,1,1,0-3.36Z"/><path class="cls-1" d="M57.33,26.43l1.81-1.81A1.68,1.68,0,0,1,61.52,27L59.71,28.8a1.68,1.68,0,1,1-2.38-2.37Z"/><path class="cls-1" d="M34,43.07a1.68,1.68,0,0,1,1.68-1.68h5.67V28.93a1.68,1.68,0,0,1,3.36,0V43.07a1.69,1.69,0,0,1-1.68,1.68H35.72A1.68,1.68,0,0,1,34,43.07Z"/><path class="cls-1" d="M11.25,42.79A1.69,1.69,0,0,1,9.67,41,33.45,33.45,0,1,1,10,48.07a1.68,1.68,0,1,1,3.32-.49A30.12,30.12,0,1,0,13,41.22a1.68,1.68,0,0,1-1.77,1.57Z"/><path class="cls-1" d="M43.07,0a43.09,43.09,0,0,1,17,3.51H89.69a1.68,1.68,0,0,1,0,3.36H66.39A43,43,0,0,1,75,14.17a1.68,1.68,0,1,1-2.49,2.25,39.67,39.67,0,1,0,3.93,5.12,1.68,1.68,0,0,1,2.82-1.82A43.06,43.06,0,0,1,66.38,79.26H89.69a1.68,1.68,0,0,1,0,3.36H60.1A43.07,43.07,0,1,1,43.07,0Z"/></g></g></svg>