<svg xmlns="http://www.w3.org/2000/svg" viewBox="0 0 352.61 89.76"><defs><style>.cls-1{fill:#0540f2;}.cls-2{fill:#0554f2;}.cls-3{fill:#056cf2;}.cls-4{fill:#8daef2;}.cls-5{fill:#606060;}</style></defs><g id="Camada_2" data-name="Camada 2"><g id="Camada_1-2" data-name="Camada 1"><path class="cls-1" d="M78.41,22.27C39.55,27.12,11.06,39.92,0,45.56V0H39.63A44.88,44.88,0,0,1,78.41,22.27Z"/><path class="cls-2" d="M81,27.54C39.47,39,11,64.59,0,75.86V53C22.71,35.77,54.71,27.64,79.27,23.82A40.89,40.89,0,0,1,81,27.54Z"/><path class="cls-3" d="M83.31,34.53c-28.46,17-41.87,47.09-45.09,55.23H3.87C29.22,55.23,59.38,38.25,82,29.92A42.15,42.15,0,0,1,83.31,34.53Z"/><path class="cls-4" d="M84.51,44.88A44.91,44.91,0,0,1,50.66,88.4c6-25.68,19.92-41.45,33.23-51A45,45,0,0,1,84.51,44.88Z"/><path class="cls-1" d="M107,14.11h14.91c7.37,0,13.41,1.95,18.13,5.81s7.08,9.38,7.08,16.57a22.19,22.19,0,0,1-3.45,12.44c-4.55,6.9-12.26,10.24-21.7,10.24H107Zm11.34,34.53H122a14.53,14.53,0,0,0,9.72-3.17c2.54-2.13,3.8-5.06,3.8-8.92a10.79,10.79,0,0,0-3.85-8.86A14.47,14.47,0,0,0,122,24.52h-3.68Z"/><path class="cls-1" d="M185.53,24.18H165.27v7.36h18.42v9.73H165.27V49H185.7V59.17H154.05V14.11h31.48Z"/><path class="cls-1" d="M221.5,55.83q-4.58,4-12.78,4-13.89,0-18.3-10.36l9.38-4.83q2.5,5.52,9,5.52c3.63,0,5.81-1.43,5.81-3.74,0-2-1.67-3.16-7-4.6C197.44,39,192.26,34.94,192.26,27.4A12.47,12.47,0,0,1,197,17.33a17.68,17.68,0,0,1,11.63-4c8.28,0,14.1,3.91,16.63,9.9L216,28.32c-1.49-3.57-4-5.35-7.65-5.35-2.82,0-4.84,1.55-4.84,3.8,0,1.9,1.33,3.22,6.1,4.6,5.76,1.67,9.9,3.57,12.49,5.7a10.46,10.46,0,0,1,3.92,8.63A12.82,12.82,0,0,1,221.5,55.83Z"/><path class="cls-1" d="M241,24.41H228.18V14.11H265v10.3H252.29V59.17H241Z"/><path class="cls-1" d="M273.13,59.17H261.21l17.33-45.06h12.77l17.33,45.06h-12l-3.11-8.29H276.12Zm11.68-32.29-5.35,14.39h10.82Z"/><path class="cls-1" d="M312.84,59.17V14.11h11.4V33.44l13.93-19.33h13.35L336,35.52l16.57,23.65h-14.1L324.24,37.82V59.17Z"/><path class="cls-5" d="M107.36,66.81V65.68h7.73v1.13h-3.26v9.41h-1.22V66.81Z"/><path class="cls-5" d="M125,76v.18H123.7l-2.92-3.87H118v3.87h-1.26V65.66H121a3.37,3.37,0,0,1,3.6,3.39,3.14,3.14,0,0,1-2.51,3.14ZM121,71.31a2.27,2.27,0,1,0,0-4.53H118v4.53Z"/><path class="cls-5" d="M128.16,73.62l-1.23,2.6h-1.31v-.16l4.91-10.43h.57L136,76.06v.16h-1.3l-1.24-2.6Zm.42-1.09H133l-2.21-4.92Z"/><path class="cls-5" d="M138.66,68.26l.1,2.89v5.07h-1.25V65.65H138l6.87,8-.13-3v-5H146V76.24h-.41Z"/><path class="cls-5" d="M149.28,73.35c.07,1.41,1.7,2,3,2s2.81-.49,2.86-2c0-1.71-1.6-1.74-3-1.93-1.91-.2-3.84-.69-3.84-2.8s2-3.06,3.82-3.06,3.88.84,3.95,2.89h-1.17c-.12-1.34-1.54-1.76-2.75-1.76s-2.6.53-2.6,1.91c0,1.57,1.52,1.63,2.8,1.79,2.09.25,4.05.62,4.05,3s-2.17,3.07-4.08,3.12-4.16-.89-4.23-3.06Z"/><path class="cls-5" d="M158.48,76.21V65.66h4.22a3.61,3.61,0,1,1,0,7.21h-3v3.34Zm4.22-4.47a2.48,2.48,0,0,0,0-5c-1,0-2,0-3,0v5Z"/><path class="cls-5" d="M173,76.39A5.45,5.45,0,1,1,178.32,71,5.17,5.17,0,0,1,173,76.39Zm0-1.16A4.3,4.3,0,1,0,168.89,71,4,4,0,0,0,173,75.23Z"/><path class="cls-5" d="M188.74,76v.18h-1.32l-2.93-3.87h-2.75v3.87h-1.27V65.66h4.2a3.37,3.37,0,0,1,3.6,3.39,3.13,3.13,0,0,1-2.51,3.14Zm-4.07-4.73a2.27,2.27,0,1,0,0-4.53h-2.95v4.53Z"/><path class="cls-5" d="M189.31,66.81V65.68H197v1.13h-3.25v9.41h-1.22V66.81Z"/><path class="cls-5" d="M199.1,73.62l-1.23,2.6h-1.31v-.16l4.91-10.43H202l4.87,10.43v.16h-1.3l-1.23-2.6Zm.42-1.09H204l-2.21-4.92Z"/><path class="cls-5" d="M212.19,65.68a5.27,5.27,0,0,1,0,10.54h-3.73V65.68Zm0,9.4a4.13,4.13,0,0,0,0-8.24h-2.44v8.24Z"/><path class="cls-5" d="M224.17,76.39A5.45,5.45,0,1,1,229.53,71,5.17,5.17,0,0,1,224.17,76.39Zm0-1.16A4.3,4.3,0,1,0,220.1,71,4,4,0,0,0,224.17,75.23Z"/><path class="cls-5" d="M240,76v.18h-1.32l-2.93-3.87H233v3.87h-1.27V65.66h4.2a3.38,3.38,0,0,1,3.61,3.39A3.14,3.14,0,0,1,237,72.19Zm-4.07-4.73a2.27,2.27,0,1,0,0-4.53h-2.95v4.53Z"/><path class="cls-5" d="M243.08,73.62l-1.23,2.6h-1.31v-.16l4.91-10.43H246l4.87,10.43v.16h-1.3l-1.23-2.6Zm.43-1.09h4.42l-2.21-4.92Z"/><path class="cls-5" d="M259.62,65.68a5.27,5.27,0,0,1,0,10.54h-3.73V65.68Zm0,9.4a4.13,4.13,0,0,0,0-8.24h-2.44v8.24Z"/><path class="cls-5" d="M273,66.78h-4.86v3.45h4.7v1.1h-4.7v3.73h5v1.16h-6.3V65.68H273Z"/><path class="cls-5" d="M284,70.12l1.8-4.44h1.35v.18l-4.39,10.41h-.53l-4.41-10.41v-.18h1.34l1.82,4.44,1.53,3.95h0Z"/><path class="cls-5" d="M295,66.78h-4.87v3.45h4.7v1.1h-4.7v3.73h5v1.16h-6.29V65.68H295Z"/><path class="cls-5" d="M301.46,75.22v1h-4.91v-1h1.82V66.67h-1.7v-1h4.67v1h-1.7v8.55ZM298.3,64.76v-.11l1.13-2,1.08.43v.11l-1.22,1.55Z"/><path class="cls-5" d="M307.91,65.56a4.7,4.7,0,0,1,4.69,3.3h-1.22a3.62,3.62,0,0,0-3.47-2.14A3.93,3.93,0,0,0,303.86,71a4,4,0,0,0,4,4.24,3.6,3.6,0,0,0,3.54-2.34h1.22a4.67,4.67,0,0,1-4.75,3.5,5.4,5.4,0,0,1,0-10.79Z"/><path class="cls-5" d="M314.6,72.64v-7h1.26v6.94a2.79,2.79,0,0,0,5.56,0V65.68h1.24v7c0,2.36-1.74,3.72-4,3.72S314.6,75,314.6,72.64Z"/><path class="cls-5" d="M326.62,75.09h5v1.13h-6.24V65.68h1.27Z"/><path class="cls-5" d="M337.48,76.39A5.45,5.45,0,1,1,342.84,71,5.17,5.17,0,0,1,337.48,76.39Zm0-1.16A4.3,4.3,0,1,0,333.41,71,4,4,0,0,0,337.48,75.23Z"/><path class="cls-5" d="M345.52,73.35c.07,1.41,1.7,2,3,2s2.81-.49,2.86-2c0-1.71-1.6-1.74-3-1.93-1.91-.2-3.84-.69-3.84-2.8s2-3.06,3.83-3.06,3.87.84,3.94,2.89h-1.17c-.12-1.34-1.54-1.76-2.74-1.76s-2.61.53-2.61,1.91c0,1.57,1.52,1.63,2.8,1.79,2.1.25,4.05.62,4.05,3s-2.16,3.07-4.08,3.12-4.16-.89-4.23-3.06Z"/></g></g></svg>