<svg xmlns="http://www.w3.org/2000/svg" viewBox="0 0 72.83 85.53"><defs><style>.cls-1{fill:#0540f2;}</style></defs><g id="Camada_2" data-name="Camada 2"><g id="Camada_1-2" data-name="Camada 1"><g id="surface1"><path class="cls-1" d="M72.75,23.21v-.07c0-.82-.06-1.69-.07-2.66a9.07,9.07,0,0,0-8.54-8.88C54.3,11.05,46.69,7.85,40.19,1.51l0-.05a5.46,5.46,0,0,0-7.44,0l-.06.05C26.14,7.85,18.53,11.05,8.7,11.6A9.07,9.07,0,0,0,.17,20.48c0,1,0,1.83-.08,2.66v.15c-.2,10-.43,22.51,3.74,33.84A43.09,43.09,0,0,0,14.16,73.22a54,54,0,0,0,20.22,12,6,6,0,0,0,.83.23,6.11,6.11,0,0,0,2.41,0,6,6,0,0,0,.83-.23,54,54,0,0,0,20.2-12A43,43,0,0,0,69,57.12C73.17,45.76,72.94,33.25,72.75,23.21ZM64.27,55.38C59.87,67.32,50.88,75.52,36.8,80.44l-.16,0a1.09,1.09,0,0,1-.44,0l-.16,0c-14.1-4.91-23.1-13.11-27.5-25C4.69,45,4.91,33.5,5.1,23.39v-.06c0-.86.07-1.77.08-2.77A4,4,0,0,1,9,16.61a44.09,44.09,0,0,0,15-3.28A39.18,39.18,0,0,0,36.11,5.14a.46.46,0,0,1,.62,0,39.06,39.06,0,0,0,12.18,8.19,44,44,0,0,0,14.94,3.28,4,4,0,0,1,3.8,3.95c0,1,0,1.91.08,2.77C67.92,33.45,68.13,44.92,64.27,55.38Z"/><path class="cls-1" d="M36.42,21.45A21.32,21.32,0,1,0,57.73,42.77,21.34,21.34,0,0,0,36.42,21.45Zm0,37.61A16.3,16.3,0,1,1,52.71,42.77,16.31,16.31,0,0,1,36.42,59.06Z"/><path class="cls-1" d="M42.54,36.15l-9.9,9.9L30,43.36a2.51,2.51,0,1,0-3.55,3.55l4.47,4.46a2.5,2.5,0,0,0,3.55,0L46.09,39.7a2.51,2.51,0,0,0-3.55-3.55Z"/></g></g></g></svg>