<svg xmlns="http://www.w3.org/2000/svg" xmlns:xlink="http://www.w3.org/1999/xlink" viewBox="0 0 205.35 78.21"><defs><style>.cls-1,.cls-2,.cls-4,.cls-5{fill:none;}.cls-2{clip-rule:evenodd;}.cls-3{isolation:isolate;}.cls-4,.cls-5{stroke:#bdbebe;stroke-linecap:round;stroke-width:3px;}.cls-4{stroke-linejoin:round;}.cls-5{stroke-miterlimit:10;}.cls-38,.cls-6{fill:#162026;}.cls-7{fill:#2a3540;}.cls-8{fill:#bac0c1;}.cls-24,.cls-44,.cls-9{fill:#404041;}.cls-10{fill:#313c48;}.cls-11,.cls-30,.cls-32,.cls-41{fill:#fff;}.cls-11,.cls-30,.cls-32{mix-blend-mode:overlay;}.cls-11,.cls-19,.cls-26,.cls-37{opacity:0.4;}.cls-12{fill:#29212c;}.cls-13,.cls-40{fill:#3f3643;}.cls-14{fill:#a5a8aa;}.cls-15{fill:#e1e3e4;}.cls-16,.cls-46{fill:#312935;}.cls-17{fill:#1f1916;}.cls-18{fill:#a41e22;}.cls-19,.cls-20,.cls-27{fill:#909596;}.cls-19,.cls-20,.cls-24,.cls-26,.cls-28,.cls-37,.cls-44{mix-blend-mode:multiply;}.cls-20{opacity:0.3;}.cls-21{fill:#ebe7c7;}.cls-22{fill:#f6921e;}.cls-23{fill:#7c8183;}.cls-24,.cls-28,.cls-32{opacity:0.2;}.cls-25{fill:#231f20;}.cls-29{clip-path:url(#clip-path);}.cls-30{opacity:0.25;}.cls-31{fill:#fbae39;}.cls-33{clip-path:url(#clip-path-2);}.cls-34,.cls-45{fill:#0540f2;}.cls-35{fill:#a21e22;}.cls-35,.cls-38,.cls-40,.cls-41,.cls-42,.cls-43,.cls-44,.cls-45,.cls-46{fill-rule:evenodd;}.cls-36{fill:#f4901e;}.cls-37{fill:#8e9394;}.cls-39,.cls-43{fill:#1b1c1c;}.cls-42{fill:#dbddde;}.cls-44{opacity:0.21;}.cls-47{fill:#d9dfde;}.cls-48{fill:#e9e5c5;}.cls-49{fill:#182127;}.cls-50{fill:#36424a;}.cls-51{fill:#a4a6a9;}.cls-52{clip-path:url(#clip-path-3);}.cls-53{fill:#f2f2f2;}</style><clipPath id="clip-path"><path class="cls-1" d="M58.6,24.19c1.46-.1,2.42-.14,2.42-.14,4.91-3,10.84-6.12,10.84-6.12.23-.11.46-.22.68-.31,2.2.05,6.92.16,11.33.16H96.58a2.62,2.62,0,0,1,1.91,1.15l2.8,3.54s1.08,1.82-1.07,1.82-34.33,1.32-34.33,1.32S60.53,26.18,58.6,24.19Z"/></clipPath><clipPath id="clip-path-2"><path class="cls-1" d="M104.06,18h11.45c.85,1.18,3.7,4.28,5.09,5.78-1.35.34-8,.32-9.36.32A5.29,5.29,0,0,1,108.35,23s-3.65-3.19-4.46-4S104.06,18,104.06,18Z"/></clipPath><clipPath id="clip-path-3"><path class="cls-2" d="M167.58,29.34l-2.92-7a1.72,1.72,0,0,0-1.58-1.06H152.67a1.22,1.22,0,0,0-1.22,1.22v8.17a1.21,1.21,0,0,0,1.05,1.2l14,1.93a1.09,1.09,0,0,0,1.24-1.09V30A1.75,1.75,0,0,0,167.58,29.34Z"/></clipPath></defs><g class="cls-3"><g id="Camada_2" data-name="Camada 2"><g id="Camada_1-2" data-name="Camada 1"><line class="cls-4" x1="4.42" y1="71.48" x2="1.5" y2="71.48"/><line class="cls-4" x1="20.93" y1="71.48" x2="16.54" y2="71.48"/><polyline class="cls-4" points="196.34 66.49 203.85 71.48 39.86 71.48 35.35 71.48 26.56 71.48"/><line class="cls-5" x1="196.39" y1="76.71" x2="203.85" y2="71.48"/><rect class="cls-6" x="88.98" y="48.42" width="4.96" height="7.39"/><path class="cls-7" d="M88,55.8v1.56c0,.19.23.34.47.31l6.48-.78V55.8Z"/><path class="cls-8" d="M81.4,15.48c11.9-1.32,27.72-.11,27.72-.11a3,3,0,0,1,1.82,1.52l-3.66,0-.37-.74a.47.47,0,0,0-.38-.26c-5.4-.55-18.77-.17-21-.1a.52.52,0,0,0-.45.31l-.21.48-5,0A3.36,3.36,0,0,1,81.4,15.48Z"/><path class="cls-9" d="M110.94,16.89l-3.66,0-.37-.74a.47.47,0,0,0-.38-.26l3.87.26A3.28,3.28,0,0,1,110.94,16.89Z"/><path class="cls-9" d="M85.06,16.08l-.21.48-5,0a4.3,4.3,0,0,1,.37-.37c1.86-.18,5.1-.36,5.1-.36h0A.55.55,0,0,0,85.06,16.08Z"/><polygon class="cls-6" points="117 38.17 115.79 40.53 61.96 40.53 50.18 40.53 47.74 40.37 46.18 37.87 51.52 29.21 114.01 29.21 117 38.17"/><path class="cls-10" d="M116.71,17.32s-17-2.93-42-.44a13.13,13.13,0,0,0-2.84,1.05S65.93,21,61,24.05c0,0-12,.45-15.64,2.58,0,0-1.13.82-2.53,5.42l-.64,1a12.89,12.89,0,0,0,.64,6.53,17.1,17.1,0,0,0,4.89.84s-.91-4.74,2.63-7.58a9.92,9.92,0,0,1,9.52-1.33,8.84,8.84,0,0,1,5,9.32H98.1s-.94-5.73,3.69-8.75a9.41,9.41,0,0,1,10.19.26s4.16,2.86,3.17,7.8c0,0,5.9-.6,8.06-2.36a3.32,3.32,0,0,0,.2-3l-.18-1.24a6.29,6.29,0,0,0-1.61-1.67,19.53,19.53,0,0,0-.23-7.28s-4.74-5-5.88-6.62C115.51,18,116.94,17.82,116.71,17.32Z"/><path class="cls-11" d="M61.43,23.8l-.35,1.14a123.81,123.81,0,0,0-16,2,1.85,1.85,0,0,1,.31-.34C49.07,24.5,61,24.05,61,24.05Z"/><path class="cls-11" d="M112.32,25.62,54.29,28s-.15.56.73.67,7.11,0,9.48,4.18c0,0,3.31-3,9.86-3.48l35.81-2.43S111.87,26.79,112.32,25.62Z"/><path class="cls-12" d="M48.9,39.31A7.3,7.3,0,1,0,56.2,32,7.3,7.3,0,0,0,48.9,39.31Z"/><path class="cls-13" d="M48.9,39.31A7.3,7.3,0,1,0,56.2,32,7.3,7.3,0,0,0,48.9,39.31ZM50,41.94a6.79,6.79,0,1,1,1.45,2.15A6.75,6.75,0,0,1,50,41.94Z"/><path class="cls-13" d="M50.59,39.31A5.61,5.61,0,1,0,56.2,33.7,5.62,5.62,0,0,0,50.59,39.31Zm1.11-1.9a4.78,4.78,0,0,1,1-1.55,4.83,4.83,0,0,1,1.55-1,4.88,4.88,0,1,1,0,9,4.83,4.83,0,0,1-1.55-1.05,4.9,4.9,0,0,1-1-5.35Z"/><path class="cls-12" d="M51.1,39.31a5.1,5.1,0,1,0,5.1-5.09A5.09,5.09,0,0,0,51.1,39.31Z"/><path class="cls-14" d="M54.16,40l-3.06-.63h0a5.07,5.07,0,0,1,.31-1.79l3.06.23a.4.4,0,0,0,.42-.45l-.4-2.85a5.07,5.07,0,0,1,1.71-.29h.18l.72,2.84a.4.4,0,0,0,.57.26L60.09,36a5,5,0,0,1,1,1.79L58.6,39.36a.4.4,0,0,0-.08.6l1.94,2.14a5.07,5.07,0,0,1-1.37,1.4L56.9,41.42a.39.39,0,0,0-.61.09L54.78,44.2a5.15,5.15,0,0,1-1.73-.88l1.38-2.76A.39.39,0,0,0,54.16,40Z"/><path class="cls-15" d="M54.43,40.56l-1.38,2.76a5.15,5.15,0,0,0,1.73.88l1.51-2.69a.38.38,0,0,1,.34-.2.4.4,0,0,1,.27.11l2.19,2.08a5.07,5.07,0,0,0,1.37-1.4L58.52,40a.4.4,0,0,1,.08-.6l2.47-1.54a5,5,0,0,0-1-1.79l-2.42,1.29a.43.43,0,0,1-.19,0,.38.38,0,0,1-.38-.3l-.72-2.84H56.2a5.07,5.07,0,0,0-1.71.29l.4,2.85a.39.39,0,0,1-.39.45h0l-3.06-.23a5.07,5.07,0,0,0-.31,1.79h0l3.06.63A.39.39,0,0,1,54.43,40.56Zm.22-.45a.63.63,0,0,0-.44-.34l-2.87-.59a4.72,4.72,0,0,1,.23-1.35l2.88.21h0a.67.67,0,0,0,.48-.21.62.62,0,0,0,.14-.51l-.37-2.65a5,5,0,0,1,1.45-.22l.67,2.67a.63.63,0,0,0,.61.48.78.78,0,0,0,.3-.07L60,36.33a4.9,4.9,0,0,1,.76,1.38l-2.31,1.45a.65.65,0,0,0-.29.45.6.6,0,0,0,.16.51l1.81,2a4.8,4.8,0,0,1-1,1.07l-2.06-1.94a.62.62,0,0,0-.43-.18.63.63,0,0,0-.55.33l-1.41,2.52a4.83,4.83,0,0,1-1.32-.67l1.29-2.58A.65.65,0,0,0,54.65,40.11Z"/><path class="cls-15" d="M51.1,39.31a5.1,5.1,0,1,0,5.1-5.09A5.09,5.09,0,0,0,51.1,39.31Zm.65,0a4.45,4.45,0,1,1,4.45,4.45A4.45,4.45,0,0,1,51.75,39.31Z"/><path class="cls-14" d="M51.4,39.31a4.8,4.8,0,1,0,4.8-4.8A4.8,4.8,0,0,0,51.4,39.31Zm.35,0a4.45,4.45,0,1,1,4.45,4.45A4.45,4.45,0,0,1,51.75,39.31Z"/><path class="cls-12" d="M56.2,38.81a.52.52,0,1,1-.36.64A.52.52,0,0,1,56.2,38.81Z"/><path class="cls-12" d="M56.07,38.31a.22.22,0,0,1-.28-.16.22.22,0,0,1,.16-.28.24.24,0,0,1,.28.16A.23.23,0,0,1,56.07,38.31Z"/><path class="cls-12" d="M56.61,40.31a.22.22,0,0,1,.28.16.22.22,0,0,1-.16.28.24.24,0,0,1-.28-.16A.23.23,0,0,1,56.61,40.31Z"/><path class="cls-12" d="M55.13,38.88a.22.22,0,0,1-.08-.31.23.23,0,0,1,.31-.08.23.23,0,0,1-.23.39Z"/><path class="cls-12" d="M57.55,39.74a.23.23,0,1,1-.31.08A.22.22,0,0,1,57.55,39.74Z"/><path class="cls-12" d="M55.06,39.42a.23.23,0,0,1,.28.16.22.22,0,0,1-.16.28.22.22,0,0,1-.28-.16A.24.24,0,0,1,55.06,39.42Z"/><path class="cls-12" d="M57.34,39a.22.22,0,0,1,.16-.28.22.22,0,0,1,.28.16.24.24,0,0,1-.16.28A.23.23,0,0,1,57.34,39Z"/><path class="cls-12" d="M55.83,40.21a.23.23,0,1,1-.31.08A.22.22,0,0,1,55.83,40.21Z"/><path class="cls-12" d="M57.08,38a.23.23,0,0,1,.08.31.23.23,0,1,1-.08-.31Z"/><path class="cls-12" d="M99.41,39.31a7.3,7.3,0,1,0,7.3-7.3A7.3,7.3,0,0,0,99.41,39.31Z"/><path class="cls-13" d="M99.41,39.31a7.3,7.3,0,1,0,7.3-7.3A7.3,7.3,0,0,0,99.41,39.31Zm1.07,2.63a6.79,6.79,0,1,1,1.45,2.15A6.75,6.75,0,0,1,100.48,41.94Z"/><path class="cls-13" d="M101.1,39.31a5.61,5.61,0,1,0,5.61-5.61A5.62,5.62,0,0,0,101.1,39.31Zm1.11-1.9a4.9,4.9,0,0,1,6.4-2.6,4.83,4.83,0,0,1,1.55,1,4.86,4.86,0,0,1,0,6.9,4.83,4.83,0,0,1-1.55,1.05,4.89,4.89,0,0,1-6.4-6.4Z"/><circle class="cls-12" cx="106.71" cy="39.31" r="5.09" transform="translate(-2.52 7.66) rotate(-4.07)"/><path class="cls-14" d="M104.67,40l-3-.63h0a5.06,5.06,0,0,1,.3-1.79l3.06.23a.4.4,0,0,0,.43-.45L105,34.51a5.12,5.12,0,0,1,1.71-.29h.19l.71,2.84a.4.4,0,0,0,.57.26L110.61,36a5.1,5.1,0,0,1,1,1.79l-2.46,1.54a.39.39,0,0,0-.08.6L111,42.1a5,5,0,0,1-1.36,1.4l-2.19-2.08a.4.4,0,0,0-.62.09l-1.51,2.69a5.24,5.24,0,0,1-1.73-.88L105,40.56A.39.39,0,0,0,104.67,40Z"/><path class="cls-15" d="M105,40.56l-1.39,2.76a5.24,5.24,0,0,0,1.73.88l1.51-2.69a.39.39,0,0,1,.34-.2.43.43,0,0,1,.28.11l2.19,2.08A5,5,0,0,0,111,42.1L109,40a.39.39,0,0,1,.08-.6l2.46-1.54a5.1,5.1,0,0,0-1-1.79l-2.43,1.29a.41.41,0,0,1-.57-.26l-.71-2.84h-.19a5.12,5.12,0,0,0-1.71.29l.41,2.85a.4.4,0,0,1-.4.45h0l-3.06-.23a5.06,5.06,0,0,0-.3,1.79h0l3,.63A.39.39,0,0,1,105,40.56Zm.21-.45a.59.59,0,0,0-.44-.34l-2.86-.59a4.71,4.71,0,0,1,.22-1.35L105,38h0a.65.65,0,0,0,.48-.21.66.66,0,0,0,.15-.51l-.38-2.65a5.1,5.1,0,0,1,1.45-.22l.67,2.67a.65.65,0,0,0,.62.48.73.73,0,0,0,.29-.07l2.26-1.2a4.63,4.63,0,0,1,.75,1.38L109,39.16a.65.65,0,0,0-.29.45.67.67,0,0,0,.16.51l1.81,2a4.8,4.8,0,0,1-1,1.07l-2-1.94a.63.63,0,0,0-1,.15l-1.41,2.52a5.13,5.13,0,0,1-1.32-.67l1.3-2.58A.61.61,0,0,0,105.16,40.11Z"/><path class="cls-15" d="M101.62,39.31a5.1,5.1,0,1,0,5.09-5.09A5.09,5.09,0,0,0,101.62,39.31Zm.65,0a4.45,4.45,0,1,1,4.44,4.45A4.44,4.44,0,0,1,102.27,39.31Z"/><path class="cls-14" d="M101.92,39.31a4.8,4.8,0,1,0,4.79-4.8A4.79,4.79,0,0,0,101.92,39.31Zm.35,0a4.45,4.45,0,1,1,4.44,4.45A4.44,4.44,0,0,1,102.27,39.31Z"/><path class="cls-12" d="M106.72,38.81a.52.52,0,0,1,.27,1,.52.52,0,0,1-.64-.36A.53.53,0,0,1,106.72,38.81Z"/><path class="cls-12" d="M106.58,38.31a.22.22,0,0,1-.28-.16.24.24,0,0,1,.16-.28.23.23,0,0,1,.28.16A.23.23,0,0,1,106.58,38.31Z"/><path class="cls-12" d="M107.13,40.31a.22.22,0,0,1,.28.16.24.24,0,0,1-.16.28.23.23,0,0,1-.28-.16A.22.22,0,0,1,107.13,40.31Z"/><path class="cls-12" d="M105.65,38.88a.23.23,0,0,1-.09-.31.23.23,0,0,1,.31-.08.23.23,0,0,1,.09.31A.22.22,0,0,1,105.65,38.88Z"/><path class="cls-12" d="M108.06,39.74a.23.23,0,0,1,.09.31.22.22,0,0,1-.31.08.23.23,0,0,1-.09-.31A.22.22,0,0,1,108.06,39.74Z"/><path class="cls-12" d="M105.58,39.42a.24.24,0,0,1,.28.16.23.23,0,0,1-.16.28.22.22,0,0,1-.28-.16A.23.23,0,0,1,105.58,39.42Z"/><path class="cls-12" d="M107.85,39a.23.23,0,0,1,.16-.28.22.22,0,0,1,.28.16.24.24,0,0,1-.16.28A.23.23,0,0,1,107.85,39Z"/><path class="cls-12" d="M106.34,40.21a.23.23,0,0,1,.09.31.22.22,0,0,1-.31.08.23.23,0,0,1-.09-.31A.22.22,0,0,1,106.34,40.21Z"/><path class="cls-12" d="M107.59,38a.23.23,0,1,1-.23.39.24.24,0,0,1-.08-.31A.22.22,0,0,1,107.59,38Z"/><path class="cls-16" d="M58.6,24.19c1.46-.1,2.42-.14,2.42-.14,4.91-3,10.84-6.12,10.84-6.12.23-.11.46-.22.68-.31,2.2.05,6.92.16,11.33.16H96.58a2.62,2.62,0,0,1,1.91,1.15l2.8,3.54s1.08,1.82-1.07,1.82-34.33,1.32-34.33,1.32S60.53,26.18,58.6,24.19Z"/><path class="cls-17" d="M67.6,25.54l-1.71.07s-5.36.57-7.29-1.42c1.46-.1,2.42-.14,2.42-.14s1.59,1.16,6.58,1.49Z"/><path class="cls-16" d="M104.06,18h11.45c.85,1.18,3.7,4.28,5.09,5.78-1.35.34-8,.32-9.36.32A5.29,5.29,0,0,1,108.35,23s-3.65-3.19-4.46-4S104.06,18,104.06,18Z"/><path class="cls-18" d="M120.9,30.07s-.74-1.73-1-2.31-1.44-.69-1.44-.69c-.82-.08-2.29-1.56-2.29-1.56-.31-.34.13-.45.13-.45a43.13,43.13,0,0,0,5.16-.21,20.37,20.37,0,0,1,.35,5.58A.63.63,0,0,1,120.9,30.07Z"/><path class="cls-11" d="M121.71,31.93a6.12,6.12,0,0,1,1.52,1.59l0,.13-6.77.54c-1.07,0-1.85-1.52-1.85-1.52A38.54,38.54,0,0,0,121.71,31.93Z"/><path class="cls-10" d="M123.55,35.09a3.42,3.42,0,0,1-.34,2.64c-2.16,1.76-8.06,2.36-8.06,2.36a7.26,7.26,0,0,0-.3-4A27.34,27.34,0,0,0,123.55,35.09Z"/><path class="cls-10" d="M98.11,38.17a10.08,10.08,0,0,0,0,2.61H64.88a10.16,10.16,0,0,0,0-2.46Z"/><path class="cls-10" d="M42.85,39.53a12.33,12.33,0,0,1-.69-2.79,21.69,21.69,0,0,0,5.58.8,9.21,9.21,0,0,0,0,2.83A17.1,17.1,0,0,1,42.85,39.53Z"/><polygon class="cls-19" points="59.52 26.92 61.87 25.23 61.96 25.35 59.58 27.07 51.5 27.6 51.82 27.39 59.52 26.92"/><path class="cls-20" d="M96.73,34.82s-.12-1.12-4.14-1.1l-24.16,1.1s-1.79.31-2.18,1Z"/><path class="cls-21" d="M44.68,27.55a44.78,44.78,0,0,0,7.14-.16A3.15,3.15,0,0,1,49.75,29l-1.91.25s-.8.78-1.39,1.33a5.52,5.52,0,0,1-3.41.87A18.69,18.69,0,0,1,44.68,27.55Z"/><path class="cls-22" d="M43.88,29.15a14.61,14.61,0,0,1,.8-1.6,44.78,44.78,0,0,0,7.14-.16A3.15,3.15,0,0,1,49.75,29l-1.91.25A15.49,15.49,0,0,1,43.88,29.15Z"/><path class="cls-23" d="M44.68,27.55l.94,0a14.89,14.89,0,0,0-2.24,3.85H43A18.69,18.69,0,0,1,44.68,27.55Z"/><path class="cls-19" d="M43,31.44h.2a5.38,5.38,0,0,0,3.21-.87c.59-.55,1.39-1.33,1.39-1.33L49.75,29a3.15,3.15,0,0,0,2.07-1.6,45.17,45.17,0,0,1-4.61.23c-1.19,0-2.09,0-2.53-.07A18.69,18.69,0,0,0,43,31.44Zm.21-.15a18.38,18.38,0,0,1,1.52-3.58c.46,0,1.32.07,2.44.07,1.47,0,2.91-.07,4.31-.21a2.78,2.78,0,0,1-1.79,1.26l-1.91.26h0l0,0s-.8.78-1.38,1.32A5.24,5.24,0,0,1,43.25,31.29Z"/><path class="cls-24" d="M79.65,26.94a1.28,1.28,0,0,0,1.43,1c.78,0,1.39-.51,1.38-1.1a1.28,1.28,0,0,0-1.43-1C80.25,25.86,79.64,26.35,79.65,26.94Z"/><rect class="cls-9" x="78.97" y="26.48" width="4.24" height="0.79" rx="0.24" transform="translate(-0.66 2.09) rotate(-1.47)"/><path class="cls-24" d="M83.21,26.85V27a.23.23,0,0,1-.23.25l-3.75.1a.24.24,0,0,1-.25-.24V27Z"/><rect class="cls-24" x="82.37" y="26.45" width="0.09" height="0.79" transform="translate(165.48 51.6) rotate(178.56)"/><path class="cls-25" d="M82.61,26.84a.19.19,0,0,0,.19.19.18.18,0,0,0,.18-.19.19.19,0,0,0-.19-.19A.18.18,0,0,0,82.61,26.84Z"/><path class="cls-24" d="M98.36,26.46a1.28,1.28,0,0,0,1.43,1c.78,0,1.39-.51,1.38-1.1a1.28,1.28,0,0,0-1.43-1C99,25.38,98.35,25.87,98.36,26.46Z"/><rect class="cls-9" x="97.68" y="26" width="4.24" height="0.79" rx="0.24" transform="translate(-0.64 2.57) rotate(-1.47)"/><path class="cls-24" d="M101.92,26.36v.13a.23.23,0,0,1-.23.25l-3.76.1a.24.24,0,0,1-.24-.24v-.13Z"/><rect class="cls-24" x="101.08" y="25.97" width="0.09" height="0.79" transform="translate(202.89 50.11) rotate(178.53)"/><path class="cls-25" d="M101.31,26.36a.2.2,0,0,0,.2.19.19.19,0,0,0,.18-.2.19.19,0,0,0-.38,0Z"/><path class="cls-19" d="M116.28,25.06a43.13,43.13,0,0,0,5.16-.21c0,.08,0,.15,0,.23a38.75,38.75,0,0,1-4.32.2s-.28,0,0,.35a5.89,5.89,0,0,0,2.07,1.29s1,.2,1.28.73.93,2.07.93,2.07a.54.54,0,0,0,.37.36c0,.13,0,.24,0,.35a.63.63,0,0,1-.89-.36s-.74-1.73-1-2.31-1.44-.69-1.44-.69c-.82-.08-2.29-1.56-2.29-1.56C115.84,25.17,116.28,25.06,116.28,25.06Z"/><path class="cls-22" d="M120.1,25.62h1.48c.06.34.1.67.14,1H120.1a.48.48,0,0,1-.48-.49v0A.48.48,0,0,1,120.1,25.62Z"/><g class="cls-26"><path class="cls-27" d="M58.6,24.19c1.23,1.27,3.87,1.5,5.61,1.5a16.39,16.39,0,0,0,1.68-.08s32.19-1.32,34.33-1.32,1.07-1.82,1.07-1.82l-2.8-3.54a2.66,2.66,0,0,0-1.9-1.15H83.87c-4.41,0-9.13-.11-11.33-.16-.22.09-.45.2-.68.31,0,0-5.93,3.08-10.84,6.12C61,24.05,60.06,24.09,58.6,24.19Zm5.61,1.26c-1.36,0-3.68-.14-5-1.06l1.83-.1h.06l0,0c4.85-3,10.77-6.08,10.82-6.11l.62-.29c2.38.06,7,.16,11.29.16H96.59a2.45,2.45,0,0,1,1.71,1.07l2.8,3.52c.11.2.35.76.15,1.09s-.65.36-1,.36c-2.12,0-34,1.32-34.34,1.33h0S65.17,25.45,64.21,25.45Z"/><path class="cls-27" d="M103.89,19c.81.84,4.46,4,4.46,4a5.29,5.29,0,0,0,2.89,1.05h.46a77.8,77.8,0,0,0,8.9-.33c-1.39-1.5-4.24-4.6-5.09-5.78H104.06S103.07,18.13,103.89,19Zm-.09-.61c0-.09.19-.16.29-.18h11.3c.86,1.15,3.22,3.74,4.75,5.4a83.74,83.74,0,0,1-8.44.24h-.46a5,5,0,0,1-2.74-1c-.15-.13-3.66-3.21-4.45-4C103.83,18.58,103.78,18.43,103.8,18.36Z"/></g><g class="cls-28"><path class="cls-27" d="M115.15,40.09c1-4.94-3.17-7.8-3.17-7.8a9.67,9.67,0,0,0-1.67-.93l11.46-.64c-.07.72-.15,1.13-.15,1.13a6.29,6.29,0,0,1,1.61,1.67l.18,1.24a3.32,3.32,0,0,1-.2,3C121.05,39.49,115.15,40.09,115.15,40.09Z"/><path class="cls-27" d="M42.05,35.15l6.63-.37a9,9,0,0,0-.94,5.59c-.78,0-1.47-.12-2.06-.2l-3.11-1.46A13.28,13.28,0,0,1,42.05,35.15Z"/><path class="cls-27" d="M64.88,40.78A8.69,8.69,0,0,0,63.07,34l39.11-2.17c-.25.13-.39.22-.39.22-4.63,3-3.69,8.75-3.69,8.75Z"/></g><path class="cls-11" d="M42.14,33.44a3.58,3.58,0,0,1,.07-.44l.64-1a49.79,49.79,0,0,0,6.59-.61S47.57,33.35,42.14,33.44Z"/><g class="cls-29"><polygon class="cls-30" points="82.58 13.75 89.85 29.34 83.33 29.34 76.06 13.75 82.58 13.75"/><polygon class="cls-30" points="92.68 13.75 99.95 29.34 97.63 29.34 90.36 13.75 92.68 13.75"/><polygon class="cls-30" points="72.86 13.75 80.12 29.34 76.29 29.34 69.02 13.75 72.86 13.75"/><polygon class="cls-30" points="87.89 13.75 95.16 29.34 93.66 29.34 86.39 13.75 87.89 13.75"/><polygon class="cls-30" points="85.84 13.75 93.11 29.34 92.14 29.34 84.88 13.75 85.84 13.75"/></g><path class="cls-17" d="M75.19,17.68l1.34,0L67,25.57l-1.11,0a15.54,15.54,0,0,1-1.64.08l-.94-.36Z"/><path class="cls-17" d="M87.17,24.76l-4.55.18,1.19-7.16h3.36Z"/><path class="cls-19" d="M65.71,37a.73.73,0,0,0,.71.56H96.54a.79.79,0,0,0,.77-.69c.18-1.55,1.22-5.36,7-7.3a.79.79,0,0,0,.55-.73c.05-1.48,0-5.07-1.17-6.38l-4.27-4.59c-.07-.1-.87-1.07-3.51-1.07L79.74,17c-.13,0-3.1,0-4.49,1-.06,0-5.37,3.88-8.32,5.95a3.13,3.13,0,0,0-1.14,1.45,10,10,0,0,0-.53,1.78h0A25.86,25.86,0,0,0,65.71,37Zm30.83.32H84.28c0-1-.35-8.44.74-12.44v0l.71-7.75L95.87,17c2.59,0,3.32,1,3.33,1v0l4.27,4.58c1.16,1.29,1.14,5.09,1.11,6.22a.57.57,0,0,1-.39.52c-5.87,2-6.94,5.9-7.12,7.49A.53.53,0,0,1,96.54,37.32ZM65.49,27.14A10.69,10.69,0,0,1,66,25.4a2.89,2.89,0,0,1,1-1.34c3-2.06,8.26-5.9,8.32-5.94,1.34-.91,4.33-.93,4.36-.93l5.75-.08-.7,7.72c-1.09,4-.8,11.45-.75,12.49H66.42a.48.48,0,0,1-.48-.37A25.65,25.65,0,0,1,65.49,27.14Z"/><path class="cls-6" d="M69,23.44l.5.76-.2,1a.24.24,0,0,1-.24.2H68s-.76-.63-.77-1.21S69,23.44,69,23.44Z"/><path class="cls-31" d="M70.79,23.82,71,22s0-.29-.53-.35a2.73,2.73,0,0,0-1.61.51A6.21,6.21,0,0,0,68,24.14s.09.47.41.48a6.17,6.17,0,0,0,1.75-.16S70.75,24.18,70.79,23.82Z"/><path class="cls-32" d="M70.45,21.68l.14,0a7.4,7.4,0,0,0-1.84,2.92h-.38c-.32,0-.41-.48-.41-.48a6.21,6.21,0,0,1,.88-1.95A2.73,2.73,0,0,1,70.45,21.68Z"/><g class="cls-33"><polygon class="cls-30" points="109.21 14.27 115.82 28.45 109.9 28.45 103.28 14.27 109.21 14.27"/><polygon class="cls-30" points="118.41 14.27 125.02 28.45 122.91 28.45 116.29 14.27 118.41 14.27"/><polygon class="cls-30" points="100.36 14.27 106.97 28.45 103.48 28.45 96.87 14.27 100.36 14.27"/><polygon class="cls-30" points="114.04 14.27 120.66 28.45 119.29 28.45 112.68 14.27 114.04 14.27"/><polygon class="cls-30" points="112.18 14.27 118.79 28.45 117.91 28.45 111.3 14.27 112.18 14.27"/></g><path class="cls-6" d="M48.2,47.19V60.92L60.48,48.5h43.9a.78.78,0,0,0,.78-.78v-.53Z"/><rect class="cls-34" x="44.27" y="43.26" width="79.42" height="3.93"/><rect class="cls-34" x="37.04" y="52.46" width="18.41" height="3.93" transform="translate(100.67 8.19) rotate(90)"/><path class="cls-35" d="M44,48.75a.37.37,0,0,0-.36.37v4.52A.37.37,0,0,0,44,54h.5V48.75Z"/><path class="cls-35" d="M43.62,55.83v4.52a.36.36,0,0,0,.36.37h.5V55.47H44A.36.36,0,0,0,43.62,55.83Z"/><rect class="cls-36" x="43.62" y="57.1" width="0.86" height="1.98"/><rect class="cls-34" x="44.27" y="36.77" width="3.93" height="6.48"/><rect class="cls-34" x="119.78" y="36.77" width="3.93" height="6.48"/><polygon class="cls-34" points="54.9 36.77 56.27 43.26 59.04 43.26 57.67 36.77 54.9 36.77"/><polygon class="cls-34" points="98.18 36.77 96.81 43.26 94.05 43.26 95.42 36.77 98.18 36.77"/><path class="cls-7" d="M38.51,50.23H40a0,0,0,0,1,0,0v4.91a0,0,0,0,1,0,0H36.36a0,0,0,0,1,0,0V52.37A2.15,2.15,0,0,1,38.51,50.23Z"/><path class="cls-35" d="M36,51.16a.25.25,0,0,0-.25.24V57h.65V51.16Z"/><path class="cls-7" d="M55.72,47.33a.8.8,0,0,1,.75-.31L73,49.15l1.64,2.19H54.26V49.28Z"/><polygon class="cls-37" points="73.63 50.01 74.62 51.34 54.26 51.34 54.26 50.01 73.63 50.01"/><rect class="cls-6" x="43.26" y="51.06" width="22.52" height="11.12"/><polygon class="cls-38" points="129.18 39.56 129.18 62.19 152.89 62.19 155.78 61.23 174.01 61.23 174.01 42.48 129.18 39.56"/><path class="cls-39" d="M48.27,47.47A12.6,12.6,0,0,1,60.82,60.1H35.71A12.6,12.6,0,0,1,48.27,47.47Z"/><path class="cls-40" d="M151.29,70.87a10.63,10.63,0,0,1-10.53-10.2,9.76,9.76,0,0,1,9.82-10.17,10.63,10.63,0,0,1,10.53,10.17A9.76,9.76,0,0,1,151.29,70.87Z"/><path class="cls-41" d="M151.16,67a6.62,6.62,0,0,1-6.56-6.36,6.07,6.07,0,0,1,6.11-6.33,6.62,6.62,0,0,1,6.58,6.33A6.09,6.09,0,0,1,151.16,67Z"/><path class="cls-42" d="M151.14,66.55a6.11,6.11,0,0,1-6.06-5.88,5.61,5.61,0,0,1,5.65-5.85,6.12,6.12,0,0,1,6.08,5.85A5.63,5.63,0,0,1,151.14,66.55Z"/><path class="cls-39" d="M150.82,57.34a3.19,3.19,0,0,0-3.22,3.33A3.49,3.49,0,0,0,151.05,64a3.21,3.21,0,0,0,3.22-3.36A3.47,3.47,0,0,0,150.82,57.34Zm.22,6.22a3,3,0,0,1-3-2.89,2.76,2.76,0,0,1,2.76-2.86,3,3,0,0,1,3,2.86A2.77,2.77,0,0,1,151,63.56Z"/><path class="cls-43" d="M151,61.72a1.06,1.06,0,0,1-1.06-1,1,1,0,0,1,1-1,1.08,1.08,0,0,1,1.08,1A1,1,0,0,1,151,61.72Z"/><path class="cls-43" d="M156.08,59.21a3.19,3.19,0,0,0-.38-1,2.77,2.77,0,0,0-.52-.75c-.62.47-.6.61-.37,1.14A.88.88,0,0,0,156.08,59.21Z"/><path class="cls-43" d="M156.33,61c-.8,0-.87.09-1,.61a.88.88,0,0,0,.64,1.23,3.52,3.52,0,0,0,.33-.93A3,3,0,0,0,156.33,61Z"/><path class="cls-43" d="M153.75,64.21a.84.84,0,0,0-.27,1.34,2.8,2.8,0,0,0,.84-.5,2.86,2.86,0,0,0,.64-.64C154.35,63.86,154.22,63.93,153.75,64.21Z"/><path class="cls-43" d="M150.89,65.12c-.6-.12-1,.11-1.09.79a3.07,3.07,0,0,0,1,.19,4.08,4.08,0,0,0,.94,0C151.6,65.25,151.44,65.21,150.89,65.12Z"/><path class="cls-43" d="M146.67,63.84a4,4,0,0,0,.67.78,2.93,2.93,0,0,0,.74.54c.44-.66.34-.79,0-1.23A.88.88,0,0,0,146.67,63.84Z"/><path class="cls-43" d="M145.54,60.29a3.09,3.09,0,0,0,0,1,2.61,2.61,0,0,0,.24.89c.76-.23.78-.37.74-.94A.89.89,0,0,0,145.54,60.29Z"/><path class="cls-43" d="M147.14,58.28a.86.86,0,0,0-.21-1.34,2.82,2.82,0,0,0-.61.75,2.86,2.86,0,0,0-.38.82C146.68,58.83,146.79,58.71,147.14,58.28Z"/><path class="cls-43" d="M153.81,56.21a3.36,3.36,0,0,0-.88-.5,3.31,3.31,0,0,0-.88-.25c-.18.77,0,.86.45,1.13A.84.84,0,0,0,153.81,56.21Z"/><path class="cls-43" d="M150.2,55.32a3.08,3.08,0,0,0-1,.16,2.58,2.58,0,0,0-.83.36c.36.73.52.71,1.07.62A.84.84,0,0,0,150.2,55.32Z"/><path class="cls-12" d="M161.11,60.67A10.63,10.63,0,0,0,150.58,50.5a9.76,9.76,0,0,0-9.82,10.17,10.63,10.63,0,0,0,10.53,10.2A9.76,9.76,0,0,0,161.11,60.67Zm-9.91,7.61a7.9,7.9,0,0,1-7.84-7.61,7.26,7.26,0,0,1,7.31-7.58,7.94,7.94,0,0,1,7.87,7.58A7.29,7.29,0,0,1,151.2,68.28Z"/><path class="cls-13" d="M161.11,60.67A10.63,10.63,0,0,0,150.58,50.5a9.76,9.76,0,0,0-9.82,10.17,10.63,10.63,0,0,0,10.53,10.2A9.76,9.76,0,0,0,161.11,60.67ZM158,67.51a9.23,9.23,0,0,1-6.68,2.8,10.08,10.08,0,0,1-10-9.66,9.21,9.21,0,0,1,9.26-9.59,10.07,10.07,0,0,1,10,9.63A9.28,9.28,0,0,1,158,67.51Z"/><path class="cls-44" d="M161.11,60.67A10.63,10.63,0,0,0,150.58,50.5a9.79,9.79,0,0,0-7.39,3.31L158,68.25A9.8,9.8,0,0,0,161.11,60.67Z"/><path class="cls-40" d="M48.74,70.87A10.63,10.63,0,0,1,38.2,60.67,9.77,9.77,0,0,1,48,50.5,10.61,10.61,0,0,1,58.55,60.67,9.76,9.76,0,0,1,48.74,70.87Z"/><path class="cls-41" d="M48.6,67a6.6,6.6,0,0,1-6.55-6.36,6.07,6.07,0,0,1,6.11-6.33,6.61,6.61,0,0,1,6.57,6.33A6.09,6.09,0,0,1,48.6,67Z"/><path class="cls-42" d="M48.59,66.55a6.12,6.12,0,0,1-6.07-5.88,5.62,5.62,0,0,1,5.65-5.85,6.13,6.13,0,0,1,6.09,5.85A5.64,5.64,0,0,1,48.59,66.55Z"/><path class="cls-39" d="M48.26,57.34A3.2,3.2,0,0,0,45,60.67,3.5,3.5,0,0,0,48.5,64a3.21,3.21,0,0,0,3.22-3.36A3.49,3.49,0,0,0,48.26,57.34Zm.22,6.22a3,3,0,0,1-3-2.89,2.75,2.75,0,0,1,2.76-2.86,3,3,0,0,1,3,2.86A2.76,2.76,0,0,1,48.48,63.56Z"/><path class="cls-43" d="M48.42,61.72a1.08,1.08,0,0,1-1.07-1,1,1,0,0,1,1-1,1.09,1.09,0,0,1,1.09,1A1,1,0,0,1,48.42,61.72Z"/><path class="cls-43" d="M53.52,59.21a3,3,0,0,0-.37-1,2.63,2.63,0,0,0-.53-.75c-.62.47-.59.61-.37,1.14A.89.89,0,0,0,53.52,59.21Z"/><path class="cls-43" d="M53.77,61c-.8,0-.86.09-1,.61a.88.88,0,0,0,.64,1.23,3.52,3.52,0,0,0,.33-.93A2.6,2.6,0,0,0,53.77,61Z"/><path class="cls-43" d="M51.19,64.21a.84.84,0,0,0-.27,1.34,2.9,2.9,0,0,0,.85-.5,2.86,2.86,0,0,0,.64-.64C51.8,63.86,51.66,63.93,51.19,64.21Z"/><path class="cls-43" d="M48.33,65.12c-.6-.12-1,.11-1.09.79a3.09,3.09,0,0,0,1,.19,3.93,3.93,0,0,0,.93,0C49,65.25,48.88,65.21,48.33,65.12Z"/><path class="cls-43" d="M44.12,63.84a3.66,3.66,0,0,0,.66.78,2.84,2.84,0,0,0,.75.54c.43-.66.34-.79,0-1.23A.88.88,0,0,0,44.12,63.84Z"/><path class="cls-43" d="M43,60.29a2.88,2.88,0,0,0,0,1,2.61,2.61,0,0,0,.24.89c.77-.23.78-.37.74-.94A.89.89,0,0,0,43,60.29Z"/><path class="cls-43" d="M44.58,58.28a.86.86,0,0,0-.2-1.34,3,3,0,0,0-.62.75,2.86,2.86,0,0,0-.38.82C44.12,58.83,44.23,58.71,44.58,58.28Z"/><path class="cls-43" d="M51.25,56.21a3.36,3.36,0,0,0-.88-.5,3.32,3.32,0,0,0-.87-.25c-.18.77,0,.86.45,1.13A.83.83,0,0,0,51.25,56.21Z"/><path class="cls-43" d="M47.65,55.32a3.16,3.16,0,0,0-1,.16,2.58,2.58,0,0,0-.83.36c.37.73.53.71,1.07.62A.85.85,0,0,0,47.65,55.32Z"/><path class="cls-12" d="M58.55,60.67A10.61,10.61,0,0,0,48,50.5,9.77,9.77,0,0,0,38.2,60.67a10.63,10.63,0,0,0,10.54,10.2A9.76,9.76,0,0,0,58.55,60.67Zm-9.91,7.61a7.91,7.91,0,0,1-7.84-7.61,7.26,7.26,0,0,1,7.31-7.58A7.92,7.92,0,0,1,56,60.67,7.29,7.29,0,0,1,48.64,68.28Z"/><path class="cls-13" d="M58.55,60.67A10.61,10.61,0,0,0,48,50.5,9.77,9.77,0,0,0,38.2,60.67a10.63,10.63,0,0,0,10.54,10.2A9.76,9.76,0,0,0,58.55,60.67Zm-3.14,6.84a9.19,9.19,0,0,1-6.67,2.8,10.07,10.07,0,0,1-10-9.66A9.2,9.2,0,0,1,48,51.06a10.06,10.06,0,0,1,10,9.63A9.24,9.24,0,0,1,55.41,67.51Z"/><path class="cls-44" d="M58.55,60.67A10.61,10.61,0,0,0,48,50.5a9.79,9.79,0,0,0-7.39,3.31L55.45,68.25A9.8,9.8,0,0,0,58.55,60.67Z"/><path class="cls-45" d="M172.81,33.77,162.2,12.16S160.26,8,152.78,8c0,0-5.37-5-15.72-7.92a37.46,37.46,0,0,0-5.28,0s-1.72,6.07-3.21,19.37V43.35h25.62s5.63,1.12,8.62,8.29h7.05v-4.2a2.15,2.15,0,0,1,.81-1.72,2,2,0,0,1,1.48-.41l2.07.5a.24.24,0,0,0,.3-.24V38.79A23.09,23.09,0,0,0,172.81,33.77Z"/><path class="cls-45" d="M128.57,36.62v6.73h25.62s5.63,1.12,8.62,8.29h7.05v-4.2a2.15,2.15,0,0,1,.81-1.72,2,2,0,0,1,1.48-.41l2.07.5a.24.24,0,0,0,.3-.24V41.09Z"/><path class="cls-46" d="M167.58,29.34l-2.92-7a1.72,1.72,0,0,0-1.58-1.06H152.67a1.22,1.22,0,0,0-1.22,1.22v8.17a1.21,1.21,0,0,0,1.05,1.2l14,1.93a1.09,1.09,0,0,0,1.24-1.09V30A1.75,1.75,0,0,0,167.58,29.34Z"/><path class="cls-37" d="M165,19.65H149.92V41.91l4.17,0c6,.78,9.46,8.15,9.49,8.22l0,.1h5.16v-3.6a3,3,0,0,1,2.13-2.74l.12,0V33Zm5.66,24a3.3,3.3,0,0,0-2.24,3v3.26h-4.62a20.64,20.64,0,0,0-2.46-3.8c-1.51-1.83-4-4.1-7.26-4.51l-3.86,0V20h14.56l5.88,13.07Z"/><path class="cls-37" d="M144.57,19.65H139.7a2.19,2.19,0,0,0-2.18,2.18v5.73a2.18,2.18,0,0,0,2.18,2.17h4.87a2.18,2.18,0,0,0,2.18-2.17V21.83A2.19,2.19,0,0,0,144.57,19.65Zm1.89,7.91a1.89,1.89,0,0,1-1.89,1.88H139.7a1.88,1.88,0,0,1-1.88-1.88V21.83a1.89,1.89,0,0,1,1.88-1.89h4.87a1.89,1.89,0,0,1,1.89,1.89Z"/><path class="cls-47" d="M144.57,19.94H139.7a1.91,1.91,0,0,0-1.29.51,1.92,1.92,0,0,1,.89-.22h4.87a1.89,1.89,0,0,1,1.89,1.89v5.73a1.86,1.86,0,0,1-.6,1.37,1.89,1.89,0,0,0,1-1.66V21.83A1.89,1.89,0,0,0,144.57,19.94Z"/><path class="cls-37" d="M139.22,17.35h22a1.3,1.3,0,0,0,1.18-.49,1.47,1.47,0,0,0,0-1.25l-1.11-2.07c-1.25-2.56-5.24-3.07-5.41-3.09H139.22a1.07,1.07,0,0,0-1.07,1.07v4.75A1.07,1.07,0,0,0,139.22,17.35Zm-.73-5.83a.73.73,0,0,1,.73-.73h16.65c.22,0,4,.55,5.14,2.9l1.1,2.07a1.12,1.12,0,0,1,0,.92c-.13.22-.43.33-.89.33h-22a.74.74,0,0,1-.73-.74Z"/><path class="cls-47" d="M155.64,11.18c.23,0,4.21.59,5.43,3.06l1.16,2.18h0a1.33,1.33,0,0,0-.12-.67L161,13.69c-1.15-2.35-4.92-2.87-5.14-2.9H139.22a.74.74,0,0,0-.65.39Z"/><path class="cls-34" d="M174.64,46.64l-2.19-.52c-1-.16-1.18,1-1.18,1V60.16h-7.69v-4h-1.41v6h12a.75.75,0,0,0,.75-.75V47A.38.38,0,0,0,174.64,46.64Z"/><rect class="cls-34" x="163.91" y="56.18" width="7.01" height="1.56"/><polygon class="cls-48" points="174.92 59.29 174.92 55.91 171.26 55.05 171.26 55.53 171.26 58.95 174.92 59.29"/><polygon class="cls-10" points="128.57 43.83 134.31 43.83 134.31 47.9 128.57 46.25 128.57 43.83"/><path class="cls-10" d="M134.86,43.83V47.9l8,1.54s2.4-1.8,3.81-1.8h7.52s3.49.67,5.92,5.08c0,0,.19.64,1.46.64l.57,2.29h.69a12.21,12.21,0,0,0-8.59-11.82Z"/><path class="cls-6" d="M157.22,47.47a7.11,7.11,0,0,0-2.54-1.15h-9a9.7,9.7,0,0,0-3.53,3l.39.08a9.17,9.17,0,0,1,3.24-2.71h8.84a7,7,0,0,1,2.41,1.1,12.7,12.7,0,0,1,4.36,5.58h.2l.06.26.13-.25,0-.08A13.12,13.12,0,0,0,157.22,47.47Z"/><path class="cls-10" d="M139.72,50.51l1.58.27s-1.7,2.9-1.7,4.87v7.19h-1.76v-7S138.22,52.39,139.72,50.51Z"/><rect class="cls-34" x="163.3" y="52.3" width="6.58" height="0.97"/><path class="cls-34" d="M134.08,49.36A2.34,2.34,0,0,1,132,50.51h-72a.65.65,0,0,0-.54,1c2.05,3.12,2.8,6.34,2.8,11.33h75.2V55.65a10.58,10.58,0,0,1,1.85-5.14Z"/><path class="cls-37" d="M61.93,58.4a31.5,31.5,0,0,1,.27,4.44h75.2V58.4Z"/><path class="cls-37" d="M137.4,58.67v-.53H121.1V52.7h17c.07-.19.15-.36.22-.53H121.1V50.51h-.53v1.66H71.81V50.51h-.52v1.66H59.81c.11.18.21.35.3.53H71.29v5.44H61.9c0,.17.05.35.07.53h9.32v4.17h.52V58.67h48.76v4.17h.53V58.67Zm-16.83-.53H71.81V52.7h48.76Z"/><path class="cls-49" d="M125.65,57.17V55.39c0-.19-.19-.33-.43-.33h-3c-.24,0-.43.14-.43.33v1.78c0,.18.19.32.43.32h3C125.46,57.49,125.65,57.35,125.65,57.17Z"/><path class="cls-50" d="M122,55.65h0a.4.4,0,0,1,.4-.41H125a.4.4,0,0,1,.4.41h0a.4.4,0,0,1-.4.4H122.4A.4.4,0,0,1,122,55.65Z"/><rect class="cls-49" x="151.41" y="37.43" width="2.44" height="2.98" rx="0.33"/><path class="cls-50" d="M152,40.22h0a.4.4,0,0,1-.4-.41V38a.4.4,0,0,1,.4-.4h0a.4.4,0,0,1,.4.4v1.78A.4.4,0,0,1,152,40.22Z"/><rect class="cls-37" x="133.9" y="31.99" width="16.02" height="0.41"/><path class="cls-45" d="M131.78.1s-1.72,6.07-3.21,19.37V43.35h6.09C133.81,26.9,136.58,8,136.58,8h16.2s-5.37-5-15.72-7.92A37.46,37.46,0,0,0,131.78.1Z"/><polygon class="cls-6" points="171.26 55.05 172.87 55.43 172.87 59.1 171.26 58.95 171.26 55.05"/><path class="cls-51" d="M171.27,55.05v3.89l3.65.35V55.91Zm3.42,4-3.2-.3V55.33l3.2.76Z"/><path class="cls-45" d="M131.78.1s-.26.9-.66,2.78a46.45,46.45,0,0,1,20,5.14h1.7s-5.37-5-15.72-7.92A37.46,37.46,0,0,0,131.78.1Z"/><path class="cls-45" d="M128.84,17.16q-.14,1.11-.27,2.31V43.35h6.09a193.47,193.47,0,0,1,1.11-28.69Z"/><path class="cls-45" d="M134.54,32.88l-6-.71V43.35h6.09C134.48,39.9,134.46,36.35,134.54,32.88Z"/><path class="cls-6" d="M173.35,53.27a.26.26,0,0,0-.26.26v.55a.26.26,0,0,0,.26.26h1.57V53.27Z"/><path class="cls-6" d="M173.35,51.42a.26.26,0,0,0-.26.25v.55a.26.26,0,0,0,.26.26h1.57V51.42Z"/><path class="cls-6" d="M173.35,49.56a.26.26,0,0,0-.26.26v.54a.26.26,0,0,0,.26.26h1.57V49.56Z"/><path class="cls-6" d="M173.35,47.7a.26.26,0,0,0-.26.26v.54a.26.26,0,0,0,.26.26h1.57V47.7Z"/><path class="cls-37" d="M167.58,29.34l-2.92-7a1.72,1.72,0,0,0-1.58-1.06H152.67a1.22,1.22,0,0,0-1.22,1.22v8.17a1.21,1.21,0,0,0,1.05,1.2l14,1.93h.15a1.09,1.09,0,0,0,1.09-1.1V30A1.75,1.75,0,0,0,167.58,29.34Zm-.19,3.35a.77.77,0,0,1-.77.78h-.11l-14-1.92a.91.91,0,0,1-.77-.89V22.48a.9.9,0,0,1,.9-.9h10.41a1.38,1.38,0,0,1,1.28.86l2.92,7a1.55,1.55,0,0,1,.11.56Z"/><g class="cls-52"><polygon class="cls-30" points="165.71 20.2 158.87 34.85 165 34.85 171.83 20.2 165.71 20.2"/><polygon class="cls-30" points="156.2 20.2 149.37 34.85 151.55 34.85 158.39 20.2 156.2 20.2"/><polygon class="cls-30" points="174.85 20.2 168.02 34.85 171.62 34.85 178.46 20.2 174.85 20.2"/><polygon class="cls-30" points="160.71 20.2 153.88 34.85 155.29 34.85 162.12 20.2 160.71 20.2"/><polygon class="cls-30" points="162.64 20.2 155.81 34.85 156.71 34.85 163.55 20.2 162.64 20.2"/></g><path class="cls-49" d="M165.59,30.48a.61.61,0,0,0-.55.35,4.7,4.7,0,0,0-.43,1.94.5.5,0,0,0,.33.47,3.17,3.17,0,0,0,2.36,0,.42.42,0,0,0,.25-.39V30.48Z"/><path class="cls-50" d="M167.36,29a5.68,5.68,0,0,1-1,2.41v1.13a.35.35,0,0,0,.38.25h.45a12.94,12.94,0,0,0,1-4Z"/><path class="cls-49" d="M166.63,22.6v6.6h1.25a1.06,1.06,0,0,0,.84-1s-.07-3.16-.28-4.79C168.44,23.39,168.07,22.6,166.63,22.6Z"/><path class="cls-34" d="M48.27,49.14a12.6,12.6,0,0,1,12.44,11h.11a12.56,12.56,0,1,0-25.11,0h.12A12.59,12.59,0,0,1,48.27,49.14Z"/><path class="cls-37" d="M162.17,60.88v1.31h12a.75.75,0,0,0,.75-.75v-.56Z"/><rect class="cls-37" x="163.91" y="56.96" width="7.01" height="0.78"/><rect class="cls-37" x="163.3" y="52.92" width="6.58" height="0.35"/><path class="cls-53" d="M136.38,36.64a9.08,9.08,0,0,0-2.85.85V35.83H135A1.64,1.64,0,0,1,136.38,36.64Z"/><path class="cls-53" d="M136.48,36.83a6.76,6.76,0,0,0-2.95,1.76v-.83a6.57,6.57,0,0,1,2.88-1.06A.83.83,0,0,1,136.48,36.83Z"/><path class="cls-53" d="M136.56,37.09a4.25,4.25,0,0,0-1.64,2h-1.25a6.12,6.12,0,0,1,2.84-2.18A1.09,1.09,0,0,1,136.56,37.09Z"/><path class="cls-53" d="M136.6,37.47a1.63,1.63,0,0,1-1.23,1.58,3.13,3.13,0,0,1,1.21-1.86A1.27,1.27,0,0,1,136.6,37.47Z"/><path class="cls-53" d="M137.42,36.65H138a1,1,0,0,1,.66.21.73.73,0,0,1,.25.6.85.85,0,0,1-.12.46.9.9,0,0,1-.79.37h-.55Zm.42,1.25H138a.51.51,0,0,0,.35-.11.41.41,0,0,0,.14-.33.42.42,0,0,0-.14-.32A.51.51,0,0,0,138,37h-.13Z"/><path class="cls-53" d="M140.28,37h-.74v.27h.67v.36h-.67v.28h.75v.37h-1.15V36.65h1.14Z"/><path class="cls-53" d="M141.59,38.17a.72.72,0,0,1-.46.14.64.64,0,0,1-.67-.38l.34-.17a.33.33,0,0,0,.33.2c.13,0,.21-.05.21-.14s-.06-.11-.26-.16c-.36-.1-.55-.25-.55-.53a.45.45,0,0,1,.17-.36.64.64,0,0,1,.42-.15.61.61,0,0,1,.61.36l-.34.19a.28.28,0,0,0-.28-.2.15.15,0,0,0-.17.14c0,.07.05.12.22.17a1.37,1.37,0,0,1,.45.2.38.38,0,0,1,.15.32A.48.48,0,0,1,141.59,38.17Z"/><path class="cls-53" d="M142.3,37h-.47v-.37h1.34V37h-.46v1.27h-.41Z"/><path class="cls-53" d="M143.47,38.29H143l.63-1.64h.46l.63,1.64h-.43l-.12-.3h-.63Zm.43-1.18-.2.53h.39Z"/><path class="cls-53" d="M144.92,38.29V36.65h.41v.7l.51-.7h.48l-.56.78.6.86h-.51l-.52-.78v.78Z"/></g></g></g></svg>