<svg width="149" height="38" viewBox="0 0 149 38" fill="none" xmlns="http://www.w3.org/2000/svg">
<g clip-path="url(#clip0_2_1351)">
<path d="M32.92 9.34998C21.4745 10.7343 10.3448 14.0408 0 19.13V-0.0200195H16.64C19.9359 -0.0177983 23.1737 0.84858 26.0303 2.49269C28.8869 4.13681 31.2624 6.50119 32.92 9.34998Z" fill="white"/>
<path d="M34.02 11.56C21.1359 15.2997 9.42851 22.2863 0.0200195 31.85V22.27C9.54002 14.98 22.97 11.61 33.28 9.97998C33.55 10.51 33.8 11.03 34.02 11.56Z" fill="white"/>
<path d="M34.98 14.5C22.98 21.63 17.4 34.27 16.05 37.69H1.63C9.83957 26.2458 21.2674 17.5017 34.46 12.57C34.63 13.2 34.82 13.84 34.98 14.5Z" fill="white"/>
<path d="M35.46 18.85C35.4607 23.0379 34.066 27.1065 31.4962 30.4133C28.9265 33.7201 25.3283 36.0764 21.27 37.11C23.1057 28.4781 28.0985 20.8428 35.27 15.7C35.4192 16.7431 35.4827 17.7966 35.46 18.85Z" fill="white"/>
<path d="M44.9301 9.41001H51.1901C53.9352 9.29978 56.6308 10.1641 58.8 11.85C59.8113 12.7021 60.6092 13.7789 61.1301 14.9943C61.651 16.2097 61.8804 17.5301 61.8 18.85C61.8467 20.6955 61.3418 22.513 60.3501 24.07C58.4401 26.97 55.2101 28.37 51.2401 28.37H44.9301V9.41001ZM49.6901 23.91H51.2101C52.689 23.9734 54.1412 23.5011 55.3 22.58C55.8346 22.1185 56.256 21.5403 56.5317 20.8901C56.8074 20.2399 56.93 19.5351 56.8901 18.83C56.927 18.1268 56.7999 17.4246 56.5187 16.779C56.2376 16.1333 55.8101 15.562 55.2701 15.11C54.1388 14.2023 52.7196 13.7304 51.2701 13.78H49.7201L49.6901 23.91Z" fill="white"/>
<path d="M77.89 13.64H69.38V16.73H77.12V20.82H69.38V24.08H77.96V28.33H64.67V9.40997H77.89V13.64Z" fill="white"/>
<path d="M92.9899 26.98C91.4667 28.1717 89.5605 28.7656 87.6299 28.65C83.7433 28.65 81.1799 27.2 79.9399 24.3L83.8799 22.3C84.1872 23.0321 84.7161 23.6495 85.3922 24.0656C86.0684 24.4818 86.8579 24.6756 87.6499 24.62C89.1699 24.62 90.09 24.01 90.09 23.05C90.09 22.09 89.3899 21.72 87.1399 21.11C82.8899 19.95 80.7199 18.24 80.7199 15.11C80.7035 14.2983 80.8756 13.4939 81.2227 12.7599C81.5697 12.0259 82.0822 11.3824 82.7199 10.88C84.0968 9.76286 85.8274 9.17417 87.5999 9.22002C91.0799 9.22002 93.5199 10.86 94.5999 13.37L90.7099 15.5C90.5082 14.8002 90.0793 14.1875 89.4909 13.7584C88.9024 13.3292 88.1879 13.1082 87.4599 13.13C86.2799 13.13 85.4599 13.78 85.4599 14.73C85.4599 15.52 86.0199 16.08 88.0199 16.66C89.907 17.1126 91.6894 17.924 93.2699 19.05C93.8083 19.4845 94.2372 20.0393 94.522 20.6698C94.8069 21.3003 94.9397 21.9888 94.9099 22.68C94.9369 23.4954 94.7781 24.3063 94.4454 25.0512C94.1128 25.7962 93.6151 26.4558 92.9899 26.98Z" fill="white"/>
<path d="M101.16 13.74H95.79V9.40997H111.26V13.74H105.92V28.33H101.16V13.74Z" fill="white"/>
<path d="M114.67 28.33H109.67L116.95 9.40997H122.31L129.58 28.33H124.53L123.23 24.85H115.93L114.67 28.33ZM119.57 14.77L117.32 20.77H121.87L119.57 14.77Z" fill="white"/>
<path d="M131.34 28.33V9.40997H136.12V17.53L141.97 9.40997H147.58L141.08 18.41L148.03 28.34H142.11L136.11 19.34V28.34L131.34 28.33Z" fill="white"/>
</g>
<defs>
<clipPath id="clip0_2_1351">
<rect width="148.03" height="37.68" fill="white"/>
</clipPath>
</defs>
</svg>
